<svg xmlns="http://www.w3.org/2000/svg" viewBox="0 0 512 512"><path d="M50.087 239.304H16.696C7.475 239.304 0 246.78 0 256s7.475 16.696 16.696 16.696h33.391c9.22 0 16.696-7.475 16.696-16.696s-7.476-16.696-16.696-16.696zM495.304 239.304h-33.391c-9.22 0-16.696 7.475-16.696 16.696s7.475 16.696 16.696 16.696h33.391c9.22 0 16.696-7.475 16.696-16.696s-7.475-16.696-16.696-16.696zM256 445.217c-9.22 0-16.696 7.475-16.696 16.696v33.391c0 9.22 7.475 16.696 16.696 16.696s16.696-7.475 16.696-16.696v-33.391c0-9.22-7.476-16.696-16.696-16.696zM256 0c-9.22 0-16.696 7.475-16.696 16.696v33.391c0 9.22 7.475 16.696 16.696 16.696s16.696-7.475 16.696-16.696V16.696C272.696 7.475 265.22 0 256 0zM390.111 454.895l-16.696-28.917c-4.61-7.985-14.821-10.722-22.806-6.111-7.985 4.61-10.721 14.821-6.111 22.806l16.696 28.917c4.612 7.989 14.826 10.719 22.806 6.111 7.985-4.61 10.721-14.821 6.111-22.806zM167.502 69.326l-16.696-28.917c-4.61-7.985-14.821-10.722-22.806-6.111-7.985 4.61-10.721 14.821-6.111 22.806l16.696 28.917c4.612 7.989 14.826 10.72 22.806 6.111 7.985-4.61 10.721-14.821 6.111-22.806zM471.591 361.194l-28.917-16.696c-7.986-4.612-18.196-1.875-22.806 6.111-4.61 7.985-1.874 18.196 6.111 22.806l28.917 16.696c7.981 4.609 18.194 1.878 22.806-6.111 4.61-7.985 1.874-18.196-6.111-22.806zM86.022 138.585l-28.917-16.696c-7.986-4.612-18.197-1.874-22.806 6.111-4.61 7.985-1.874 18.196 6.111 22.806l28.917 16.696c7.981 4.609 18.194 1.878 22.806-6.111 4.609-7.985 1.874-18.196-6.111-22.806zM477.702 128c-4.61-7.985-14.82-10.722-22.806-6.111l-28.917 16.696c-7.985 4.61-10.721 14.821-6.111 22.806 4.612 7.989 14.826 10.719 22.806 6.111l28.917-16.696c7.985-4.61 10.721-14.821 6.111-22.806zM92.132 350.609c-4.609-7.985-14.821-10.721-22.806-6.111l-28.917 16.696c-7.985 4.61-10.721 14.821-6.111 22.806 4.612 7.989 14.826 10.719 22.806 6.111l28.917-16.696c7.986-4.61 10.721-14.821 6.111-22.806zM384 34.298c-7.986-4.612-18.196-1.874-22.806 6.111l-16.696 28.917c-4.61 7.985-1.874 18.196 6.111 22.806 7.981 4.609 18.194 1.879 22.806-6.111l16.696-28.917c4.61-7.984 1.874-18.195-6.111-22.806zM161.391 419.868c-7.985-4.612-18.197-1.875-22.806 6.111l-16.696 28.917c-4.61 7.985-1.874 18.196 6.111 22.806 7.981 4.609 18.194 1.878 22.806-6.111l16.696-28.917c4.61-7.985 1.874-18.196-6.111-22.806zM256 100.174c-85.922 0-155.826 69.904-155.826 155.826S170.078 411.826 256 411.826 411.826 341.922 411.826 256 341.923 100.174 256 100.174zm0 278.261c-67.51 0-122.435-54.924-122.435-122.435S188.49 133.565 256 133.565 378.435 188.49 378.435 256 323.511 378.435 256 378.435z"/><path d="M256 166.957c-49.099 0-89.043 39.945-89.043 89.043 0 9.22 7.475 16.696 16.696 16.696 9.22 0 16.696-7.475 16.696-16.696 0-30.687 24.966-55.652 55.652-55.652 9.22 0 16.696-7.475 16.696-16.696-.001-9.22-7.477-16.695-16.697-16.695z"/></svg>
